<svg width="119" height="23" viewBox="0 0 119 23" fill="none" xmlns="http://www.w3.org/2000/svg">
<path d="M6.25781 14.8125C7.11719 14.8125 7.79688 14.4922 8.29688 13.8516C8.80469 13.2031 9.05859 12.3125 9.05859 11.1797C9.05859 10.0469 8.80469 9.14453 8.29688 8.47266C7.78906 7.80078 7.10938 7.46484 6.25781 7.46484C5.41406 7.46484 4.74219 7.80078 4.24219 8.47266C3.75 9.13672 3.50391 10.0391 3.50391 11.1797C3.50391 12.3203 3.75 13.2109 4.24219 13.8516C4.73438 14.4922 5.40625 14.8125 6.25781 14.8125ZM6.19922 22.2188C4.56641 22.2188 3.22266 21.8594 2.16797 21.1406C1.12109 20.4297 0.527344 19.5078 0.386719 18.375H3.73828C3.87109 18.8125 4.16797 19.1641 4.62891 19.4297C5.09766 19.7031 5.65234 19.8398 6.29297 19.8398C7.16016 19.8398 7.83594 19.6172 8.32031 19.1719C8.80469 18.7344 9.04688 18.1445 9.04688 17.4023V15.1992H8.97656C8.67969 15.8789 8.18359 16.4258 7.48828 16.8398C6.79297 17.2461 5.99609 17.4492 5.09766 17.4492C3.55078 17.4492 2.3125 16.8867 1.38281 15.7617C0.460938 14.6367 0 13.1016 0 11.1562C0 9.16406 0.460938 7.59375 1.38281 6.44531C2.30469 5.29688 3.5625 4.72266 5.15625 4.72266C6.04688 4.72266 6.83203 4.9375 7.51172 5.36719C8.19141 5.79688 8.69922 6.37891 9.03516 7.11328H9.09375V4.92188H12.4688V17.3086C12.4688 18.8008 11.8945 19.9922 10.7461 20.8828C9.60547 21.7734 8.08984 22.2188 6.19922 22.2188Z" fill="black"/>
<path d="M14.707 17.4844V4.92188H18.0117V7.18359H18.082C18.3008 6.38672 18.668 5.77734 19.1836 5.35547C19.6992 4.93359 20.3281 4.72266 21.0703 4.72266C21.4297 4.72266 21.7539 4.76562 22.043 4.85156V7.86328C21.7227 7.73047 21.3086 7.66406 20.8008 7.66406C19.957 7.66406 19.3008 7.91016 18.832 8.40234C18.3633 8.89453 18.1289 9.58203 18.1289 10.4648V17.4844H14.707Z" fill="black"/>
<path d="M33.3398 16.0195C32.2227 17.1758 30.707 17.7539 28.793 17.7539C26.8789 17.7539 25.3633 17.1719 24.2461 16.0078C23.1289 14.8438 22.5703 13.2383 22.5703 11.1914C22.5703 9.16797 23.1328 7.57422 24.2578 6.41016C25.3906 5.23828 26.9023 4.65234 28.793 4.65234C30.6914 4.65234 32.2031 5.23828 33.3281 6.41016C34.4531 7.57422 35.0156 9.16797 35.0156 11.1914C35.0156 13.2461 34.457 14.8555 33.3398 16.0195ZM28.793 15.1406C29.6367 15.1406 30.3047 14.7969 30.7969 14.1094C31.2891 13.4219 31.5352 12.4531 31.5352 11.2031C31.5352 9.96875 31.2891 9.00391 30.7969 8.30859C30.3047 7.61328 29.6367 7.26562 28.793 7.26562C27.9492 7.26562 27.2773 7.61328 26.7773 8.30859C26.2852 9.00391 26.0391 9.96875 26.0391 11.2031C26.0391 12.4531 26.2852 13.4219 26.7773 14.1094C27.2695 14.7969 27.9414 15.1406 28.793 15.1406Z" fill="black"/>
<path d="M47.0977 16.0195C45.9805 17.1758 44.4648 17.7539 42.5508 17.7539C40.6367 17.7539 39.1211 17.1719 38.0039 16.0078C36.8867 14.8438 36.3281 13.2383 36.3281 11.1914C36.3281 9.16797 36.8906 7.57422 38.0156 6.41016C39.1484 5.23828 40.6602 4.65234 42.5508 4.65234C44.4492 4.65234 45.9609 5.23828 47.0859 6.41016C48.2109 7.57422 48.7734 9.16797 48.7734 11.1914C48.7734 13.2461 48.2148 14.8555 47.0977 16.0195ZM42.5508 15.1406C43.3945 15.1406 44.0625 14.7969 44.5547 14.1094C45.0469 13.4219 45.293 12.4531 45.293 11.2031C45.293 9.96875 45.0469 9.00391 44.5547 8.30859C44.0625 7.61328 43.3945 7.26562 42.5508 7.26562C41.707 7.26562 41.0352 7.61328 40.5352 8.30859C40.043 9.00391 39.7969 9.96875 39.7969 11.2031C39.7969 12.4531 40.043 13.4219 40.5352 14.1094C41.0273 14.7969 41.6992 15.1406 42.5508 15.1406Z" fill="black"/>
<path d="M50.543 17.4844V4.92188H53.8477V7.19531H53.918C54.1836 6.42969 54.6367 5.82031 55.2773 5.36719C55.918 4.91406 56.6602 4.6875 57.5039 4.6875C58.4102 4.6875 59.168 4.91406 59.7773 5.36719C60.3867 5.8125 60.7969 6.44531 61.0078 7.26562H61.0781C61.3594 6.47656 61.8477 5.85156 62.543 5.39062C63.2461 4.92188 64.0586 4.6875 64.9805 4.6875C66.2148 4.6875 67.207 5.07422 67.957 5.84766C68.7148 6.62109 69.0938 7.64062 69.0938 8.90625V17.4844H65.6719V9.76172C65.6719 9.03516 65.4961 8.48047 65.1445 8.09766C64.793 7.70703 64.2852 7.51172 63.6211 7.51172C62.9727 7.51172 62.4492 7.72656 62.0508 8.15625C61.6602 8.58594 61.4648 9.15234 61.4648 9.85547V17.4844H58.1719V9.65625C58.1719 8.98438 57.9922 8.46094 57.6328 8.08594C57.2734 7.70312 56.7773 7.51172 56.1445 7.51172C55.4961 7.51172 54.9688 7.73438 54.5625 8.17969C54.1641 8.625 53.9648 9.19922 53.9648 9.90234V17.4844H50.543Z" fill="black"/>
<path d="M86.25 17.4844H82.7109V10.3594H75.0938V17.4844H71.5547V0.574219H75.0938V7.44141H82.7109V0.574219H86.25V17.4844Z" fill="black"/>
<path d="M88.8281 17.4844V4.92188H92.25V17.4844H88.8281ZM91.8398 3.02344C91.4883 3.36719 91.0547 3.53906 90.5391 3.53906C90.0234 3.53906 89.5898 3.36719 89.2383 3.02344C88.8867 2.67969 88.7109 2.26172 88.7109 1.76953C88.7109 1.26953 88.8867 0.851562 89.2383 0.515625C89.5898 0.171875 90.0234 0 90.5391 0C91.0547 0 91.4883 0.171875 91.8398 0.515625C92.1914 0.851562 92.3672 1.26953 92.3672 1.76953C92.3672 2.26172 92.1914 2.67969 91.8398 3.02344Z" fill="black"/>
<path d="M106.02 4.92188L101.707 17.4844H97.8398L93.4922 4.92188H97.1602L99.7734 14.4609H99.8438L102.445 4.92188H106.02Z" fill="black"/>
<path d="M112.5 7.18359C111.758 7.18359 111.137 7.4375 110.637 7.94531C110.145 8.45312 109.867 9.10156 109.805 9.89062H115.137C115.098 9.08594 114.836 8.43359 114.352 7.93359C113.875 7.43359 113.258 7.18359 112.5 7.18359ZM115.184 13.6406H118.324C118.137 14.875 117.52 15.8711 116.473 16.6289C115.434 17.3789 114.141 17.7539 112.594 17.7539C110.664 17.7539 109.148 17.1758 108.047 16.0195C106.953 14.8633 106.406 13.2773 106.406 11.2617C106.406 9.25391 106.953 7.65234 108.047 6.45703C109.141 5.25391 110.613 4.65234 112.465 4.65234C114.285 4.65234 115.734 5.22266 116.812 6.36328C117.891 7.50391 118.43 9.03125 118.43 10.9453V11.9883H109.77V12.1992C109.77 13.0977 110.031 13.8281 110.555 14.3906C111.086 14.9453 111.785 15.2227 112.652 15.2227C113.277 15.2227 113.816 15.082 114.27 14.8008C114.723 14.5117 115.027 14.125 115.184 13.6406Z" fill="black"/>
</svg>
